<svg id="Capa_1" enable-background="new 0 0 511.999 511.999" height="512" viewBox="0 0 511.999 511.999" width="512" xmlns="http://www.w3.org/2000/svg"><g id="XMLID_1639_"><path id="XMLID_1807_" d="m429.828 264.073-21.457-21.307-17.559-65.53 23.538-87.846c4.288-16.004-5.209-32.454-21.213-36.742-13.17-3.529-26.635 2.282-33.383 13.368-6.748-11.086-20.214-16.897-33.383-13.368-16.004 4.288-25.501 20.738-21.213 36.742l23.538 87.845-16.632 62.07-2.774-.082v-25.777c0-16.569-13.432-30-30-30-16.569 0-30 13.431-30 30 0-16.569-13.432-30-30-30-16.569 0-30 13.431-30 30v51.741 95.684c0 20.897 8.301 40.938 23.077 55.713l9.335 9.335v76.077h177.333v-68.86l12.722-8.165c22.578-14.493 36.23-39.478 36.23-66.307v-50.972c0-16.376-6.536-32.078-18.159-43.619z" fill="#efb789"/><path id="XMLID_1364_" d="m193.103 23.103c-15.809-15.808-40.503-17.313-58.005-4.518-17.503-12.795-42.197-11.29-58.005 4.518-17.475 17.475-17.475 45.806 0 63.281l58.005 58.005 58.005-58.005c17.475-17.474 17.475-45.806 0-63.281z" fill="#ff7d97"/><g id="XMLID_598_"><path id="XMLID_599_" d="m440.648 393.342c-4.626-3.018-10.822-1.714-13.839 2.913-5.342 8.188-12.224 15.02-20.455 20.303l-29.43 18.891c-4.647 2.982-5.997 9.169-3.014 13.816 1.91 2.977 5.133 4.6 8.425 4.6 1.849 0 3.721-.513 5.393-1.585l1.309-.84v50.56c0 5.522 4.477 10 10 10s10-4.478 10-10v-63.398l8.121-5.212c10.624-6.819 19.507-15.637 26.402-26.208 3.018-4.626 1.714-10.823-2.912-13.84z"/><path id="XMLID_1002_" d="m436.875 256.978-19.543-19.407-16.167-60.335 22.845-85.257c5.708-21.305-6.98-43.281-28.284-48.989-12.733-3.413-26.169-.184-35.975 7.946-9.657-8.038-22.934-11.44-35.968-7.946-10.32 2.766-18.946 9.384-24.289 18.637-5.342 9.253-6.761 20.032-3.996 30.352l22.845 85.258-4.373 16.32c-6.912-12.003-19.864-20.108-34.681-20.108-11.938 0-22.664 5.264-30 13.585-7.335-8.321-18.062-13.585-30-13.585-22.056 0-39.999 17.944-39.999 40v147.425c0 23.717 9.236 46.015 26.006 62.785l6.408 6.407v71.934c0 5.522 4.477 10 10 10s10-4.478 10-10v-52.2c1.683 1.136 3.633 1.709 5.586 1.709 2.559 0 5.119-.977 7.071-2.929 3.905-3.905 3.905-10.237-.001-14.143l-24.922-24.922c-12.993-12.992-20.148-30.268-20.148-48.643v-43.505c5.888 3.415 12.717 5.381 20 5.381 11.938 0 22.665-5.264 30-13.585 7.335 8.321 18.062 13.585 30 13.585 22.056 0 40-17.944 40-40v-31.773l9.406-35.103 13.016 48.576c2.613 11.512 8.077 22.549 16.472 32.011l3.222 3.632c-14.217 17.316-21.952 38.834-21.952 61.523v5.532c0 5.522 4.477 10 10 10s10-4.478 10-10v-5.532c0-20.533 7.976-39.858 22.458-54.415 3.725-3.743 3.897-9.739.391-13.69l-9.16-10.324c-16.443-18.532-17.442-45.405-3.607-64.89l53.245 52.872c9.663 9.596 15.205 22.908 15.205 36.525v5.972c0 5.523 4.477 10 10 10s10-4.477 10-10v-5.972c.001-18.906-7.694-37.391-21.111-50.714zm-217.586 45.771c-11.028 0-19.999-8.972-19.999-20v-69.301c0-11.028 8.972-20 20-20s20 8.972 20 20v69.301c0 11.028-8.972 20-20.001 20zm80.001-20c0 11.028-8.972 20-20 20s-20-8.972-20-20v-69.301c0-11.028 8.972-20 20-20s20 8.972 20 20zm91.259-220.441c5.16 1.383 9.473 4.692 12.144 9.318 2.671 4.627 3.38 10.017 1.998 15.177l-13.879 51.797-18.04-67.327c-.368-1.375-.807-2.711-1.306-4.012 4.964-4.775 12.225-6.792 19.083-4.953zm-14.509 134.26c-3.861-3.834-10.078-3.878-13.992-.099-5.388 5.202-9.79 11.036-13.219 17.268l-34.012-126.934c-1.383-5.16-.673-10.55 1.998-15.177 2.671-4.626 6.984-7.936 12.144-9.318 10.651-2.855 21.641 3.49 24.495 14.142l35.666 133.107z"/><path id="XMLID_1366_" d="m200.174 16.032-7.072 7.071 7.072-7.071c-9.292-9.292-21.62-14.935-34.712-15.888-10.601-.77-21.158 1.556-30.364 6.612-9.205-5.057-19.762-7.383-30.364-6.612-13.093.954-25.42 6.596-34.713 15.888-21.345 21.346-21.345 56.078.001 77.424l58.005 58.005c1.953 1.952 4.512 2.929 7.071 2.929s5.119-.977 7.071-2.929l58.005-58.005c21.346-21.346 21.346-56.078 0-77.424zm-14.142 63.281-50.934 50.933-50.934-50.933c-13.548-13.548-13.548-35.591 0-49.139 6.684-6.685 15.651-10.114 24.647-10.114 7.155 0 14.328 2.17 20.385 6.598 3.514 2.567 8.287 2.567 11.803 0 13.674-9.996 33.033-8.483 45.033 3.517 6.563 6.562 10.177 15.288 10.177 24.569s-3.614 18.007-10.177 24.569z"/><path id="XMLID_1367_" d="m447.987 348.669c-2.63 0-5.21 1.06-7.07 2.93-1.86 1.86-2.93 4.431-2.93 7.07 0 2.63 1.07 5.2 2.93 7.07 1.86 1.859 4.44 2.93 7.07 2.93s5.21-1.07 7.07-2.93 2.93-4.44 2.93-7.07c0-2.64-1.07-5.21-2.93-7.07-1.86-1.871-4.44-2.93-7.07-2.93z"/></g></g></svg>