<svg id="Capa_1" enable-background="new 0 0 512 512" height="512" viewBox="0 0 512 512" width="512" xmlns="http://www.w3.org/2000/svg"><g><path d="m454.385 372.6c-68.969 0-198.413-112.886-198.413-116.531 0-.031.009-.054.028-.069-.018-.015-.028-.038-.028-.069 0-3.645 129.443-116.531 198.413-116.531 25.313 0 57.615 15.206 57.615 56.6 0 20.707-16.348 44.822-36.698 60 20.35 15.178 36.698 39.293 36.698 60 0 41.394-32.302 56.6-57.615 56.6z" fill="#59c36a"/><path d="m57.615 372.6c68.969 0 198.413-112.886 198.413-116.531 0-.031-.009-.054-.028-.069.018-.015.028-.038.028-.069 0-3.645-129.443-116.531-198.413-116.531-25.313 0-57.615 15.206-57.615 56.6 0 20.707 16.348 44.822 36.698 60-20.35 15.178-36.698 39.293-36.698 60 0 41.394 32.302 56.6 57.615 56.6z" fill="#97de3d"/><path d="m372.6 454.39c0 25.31-15.21 57.61-56.6 57.61-20.71 0-44.81-16.34-59.99-36.69-.01 0-.01-.01-.01-.01-15.18 20.35-39.29 36.7-60 36.7-41.39 0-56.6-32.3-56.6-57.61 0-68.97 112.89-198.42 116.53-198.42.03 0 .05.01.07.03h.01c.02-.02.03-.03.06-.03 3.64 0 116.53 129.45 116.53 198.42z" fill="#97de3d"/><path d="m372.6 454.39c0 25.31-15.21 57.61-56.6 57.61-20.71 0-44.81-16.34-59.99-36.69v-219.31c.02-.02.03-.03.06-.03 3.64 0 116.53 129.45 116.53 198.42z" fill="#59c36a"/><path d="m372.6 57.61c0 68.97-112.89 198.42-116.53 198.42-.03 0-.04-.01-.06-.03h-.01c-.02.02-.04.03-.07.03-3.64 0-116.53-129.45-116.53-198.42 0-25.31 15.21-57.61 56.6-57.61 20.71 0 44.82 16.35 60 36.7 0 0 0-.01.01-.01 15.18-20.35 39.28-36.69 59.99-36.69 41.39 0 56.6 32.3 56.6 57.61z" fill="#97de3d"/><path d="m372.6 57.61c0 68.97-112.89 198.42-116.53 198.42-.03 0-.04-.01-.06-.03v-219.31c15.18-20.35 39.28-36.69 59.99-36.69 41.39 0 56.6 32.3 56.6 57.61z" fill="#59c36a"/></g></svg>